<svg width="13" height="13" viewBox="0 0 13 13" fill="none" xmlns="http://www.w3.org/2000/svg">
<path id="Vector" d="M13 5.03659C13 5.17272 12.9324 5.30891 12.7972 5.44503L9.96125 8.30364L10.6327 12.4555C10.6379 12.4555 10.6405 12.5236 10.6405 12.5916C10.6405 12.7278 10.6119 12.7958 10.5547 12.8638C10.5027 12.9319 10.4247 13 10.3201 13C10.2213 13 10.1172 13 10.008 12.932L6.5 10.9581L2.99221 12.932C2.87761 13 2.77342 13 2.67969 13C2.57029 13 2.48696 12.9319 2.4297 12.8638C2.37757 12.7958 2.35157 12.7278 2.35157 12.5916C2.35157 12.5916 2.35677 12.5235 2.36717 12.4555L3.03907 8.30364L0.195325 5.44503C0.06513 5.30891 0 5.17272 0 5.03659C0 4.8324 0.14586 4.69627 0.437515 4.69627L4.35935 4.08377L6.11715 0.340315C6.21595 0.136126 6.344 0 6.5 0C6.656 0 6.78405 0.136126 6.88285 0.340315L8.64045 4.08377L12.5625 4.69627C12.8544 4.69627 13 4.8324 13 5.03659Z" fill="#F1C40F"/>
</svg>
